<?xml version="1.0" encoding="UTF-8" standalone="no"?>
<!DOCTYPE svg PUBLIC "-//W3C//DTD SVG 1.1//EN" "http://www.w3.org/Graphics/SVG/1.1/DTD/svg11.dtd">
<svg width="100%" height="100%" viewBox="0 0 1024 1024" version="1.1" xmlns="http://www.w3.org/2000/svg" xmlns:xlink="http://www.w3.org/1999/xlink" xml:space="preserve" xmlns:serif="http://www.serif.com/" style="fill-rule:evenodd;clip-rule:evenodd;stroke-linejoin:round;stroke-miterlimit:2;">
    <rect id="Artboard1" x="0" y="0" width="1024" height="1024" style="fill:none;"/>
    <clipPath id="_clip1">
        <rect id="Artboard11" serif:id="Artboard1" x="0" y="0" width="1024" height="1024"/>
    </clipPath>
    <g clip-path="url(#_clip1)">
        <g id="_4" serif:id="4" transform="matrix(1,0,0,1,-2.27374e-13,1024)">
            <g id="_41" serif:id="4">
            </g>
            <g id="_3" serif:id="3">
            </g>
            <g id="_2" serif:id="2" transform="matrix(1,0,0,1,-64,64)">
                <g transform="matrix(1,0,0,1,64,-960)">
                    <circle cx="64" cy="960" r="64" style="fill:rgb(88,88,88);"/>
                </g>
                <g transform="matrix(1,0,0,1,192,-960)">
                    <circle cx="64" cy="960" r="64" style="fill:rgb(88,88,88);"/>
                </g>
                <g transform="matrix(1,0,0,1,320,-960)">
                    <circle cx="64" cy="960" r="64" style="fill:rgb(88,88,88);"/>
                </g>
                <g transform="matrix(1,0,0,1,448,-960)">
                    <circle cx="64" cy="960" r="64" style="fill:rgb(88,88,88);"/>
                </g>
                <g transform="matrix(1,0,0,1,576,-960)">
                    <circle cx="64" cy="960" r="64" style="fill:rgb(88,88,88);"/>
                </g>
                <g transform="matrix(1,0,0,1,704,-960)">
                    <circle cx="64" cy="960" r="64" style="fill:rgb(88,88,88);"/>
                </g>
                <g transform="matrix(1,0,0,1,832,-960)">
                    <circle cx="64" cy="960" r="64" style="fill:rgb(88,88,88);"/>
                </g>
                <g transform="matrix(1,0,0,1,960,-960)">
                    <circle cx="64" cy="960" r="64" style="fill:rgb(88,88,88);"/>
                </g>
                <g transform="matrix(6.12323e-17,-1,1,6.12323e-17,64,64)">
                    <circle cx="64" cy="960" r="64" style="fill:rgb(88,88,88);"/>
                </g>
            </g>
            <g id="_1" serif:id="1">
                <g transform="matrix(6.12323e-17,-1,1,6.12323e-17,-960,64)">
                    <circle cx="64" cy="960" r="64" style="fill:rgb(43,43,43);"/>
                </g>
                <g transform="matrix(1,0,0,1,-64,-960)">
                    <circle cx="64" cy="960" r="64" style="fill:rgb(43,43,43);"/>
                </g>
                <g transform="matrix(1,0,0,1,64,-960)">
                    <circle cx="64" cy="960" r="64" style="fill:rgb(43,43,43);"/>
                </g>
                <g transform="matrix(1,0,0,1,192,-960)">
                    <circle cx="64" cy="960" r="64" style="fill:rgb(43,43,43);"/>
                </g>
                <g transform="matrix(1,0,0,1,320,-960)">
                    <circle cx="64" cy="960" r="64" style="fill:rgb(43,43,43);"/>
                </g>
                <g transform="matrix(1,0,0,1,448,-960)">
                    <circle cx="64" cy="960" r="64" style="fill:rgb(43,43,43);"/>
                </g>
                <g transform="matrix(1,0,0,1,576,-960)">
                    <circle cx="64" cy="960" r="64" style="fill:rgb(43,43,43);"/>
                </g>
                <g transform="matrix(1,0,0,1,704,-960)">
                    <circle cx="64" cy="960" r="64" style="fill:rgb(43,43,43);"/>
                </g>
                <g transform="matrix(1,0,0,1,832,-960)">
                    <circle cx="64" cy="960" r="64" style="fill:rgb(43,43,43);"/>
                </g>
                <g transform="matrix(1,0,0,1,960,-960)">
                    <circle cx="64" cy="960" r="64" style="fill:rgb(43,43,43);"/>
                </g>
                <g transform="matrix(6.12323e-17,-1,1,6.12323e-17,64,64)">
                    <circle cx="64" cy="960" r="64" style="fill:rgb(43,43,43);"/>
                </g>
            </g>
        </g>
        <g id="_42" serif:id="4" transform="matrix(1,0,0,1,-2.27374e-13,768)">
            <g id="_43" serif:id="4" transform="matrix(1,0,0,1,-64,192)">
                <g transform="matrix(1,0,0,1,64,-960)">
                    <circle cx="64" cy="960" r="64" style="fill:rgb(88,128,83);"/>
                </g>
                <g transform="matrix(1,0,0,1,192,-960)">
                    <circle cx="64" cy="960" r="64" style="fill:rgb(88,128,83);"/>
                </g>
                <g transform="matrix(1,0,0,1,320,-960)">
                    <circle cx="64" cy="960" r="64" style="fill:rgb(88,128,83);"/>
                </g>
                <g transform="matrix(1,0,0,1,448,-960)">
                    <circle cx="64" cy="960" r="64" style="fill:rgb(88,128,83);"/>
                </g>
                <g transform="matrix(1,0,0,1,576,-960)">
                    <circle cx="64" cy="960" r="64" style="fill:rgb(88,128,83);"/>
                </g>
                <g transform="matrix(1,0,0,1,704,-960)">
                    <circle cx="64" cy="960" r="64" style="fill:rgb(88,128,83);"/>
                </g>
                <g transform="matrix(1,0,0,1,832,-960)">
                    <circle cx="64" cy="960" r="64" style="fill:rgb(88,128,83);"/>
                </g>
                <g transform="matrix(1,0,0,1,960,-960)">
                    <circle cx="64" cy="960" r="64" style="fill:rgb(88,128,83);"/>
                </g>
                <g transform="matrix(6.12323e-17,-1,1,6.12323e-17,64,64)">
                    <circle cx="64" cy="960" r="64" style="fill:rgb(88,128,83);"/>
                </g>
            </g>
            <g id="_31" serif:id="3" transform="matrix(1,0,0,1,0,128)">
                <g transform="matrix(6.12323e-17,-1,1,6.12323e-17,-960,64)">
                    <circle cx="64" cy="960" r="64" style="fill:white;"/>
                </g>
                <g transform="matrix(1,0,0,1,-64,-960)">
                    <circle cx="64" cy="960" r="64" style="fill:white;"/>
                </g>
                <g transform="matrix(1,0,0,1,64,-960)">
                    <circle cx="64" cy="960" r="64" style="fill:white;"/>
                </g>
                <g transform="matrix(1,0,0,1,192,-960)">
                    <circle cx="64" cy="960" r="64" style="fill:white;"/>
                </g>
                <g transform="matrix(1,0,0,1,320,-960)">
                    <circle cx="64" cy="960" r="64" style="fill:white;"/>
                </g>
                <g transform="matrix(1,0,0,1,448,-960)">
                    <circle cx="64" cy="960" r="64" style="fill:white;"/>
                </g>
                <g transform="matrix(1,0,0,1,576,-960)">
                    <circle cx="64" cy="960" r="64" style="fill:white;"/>
                </g>
                <g transform="matrix(1,0,0,1,704,-960)">
                    <circle cx="64" cy="960" r="64" style="fill:white;"/>
                </g>
                <g transform="matrix(1,0,0,1,832,-960)">
                    <circle cx="64" cy="960" r="64" style="fill:white;"/>
                </g>
                <g transform="matrix(1,0,0,1,960,-960)">
                    <circle cx="64" cy="960" r="64" style="fill:white;"/>
                </g>
                <g transform="matrix(6.12323e-17,-1,1,6.12323e-17,64,64)">
                    <circle cx="64" cy="960" r="64" style="fill:white;"/>
                </g>
            </g>
            <g id="_21" serif:id="2" transform="matrix(1,0,0,1,-64,64)">
                <g transform="matrix(1,0,0,1,64,-960)">
                    <circle cx="64" cy="960" r="64" style="fill:rgb(88,88,88);"/>
                </g>
                <g transform="matrix(1,0,0,1,192,-960)">
                    <circle cx="64" cy="960" r="64" style="fill:rgb(88,88,88);"/>
                </g>
                <g transform="matrix(1,0,0,1,320,-960)">
                    <circle cx="64" cy="960" r="64" style="fill:rgb(88,88,88);"/>
                </g>
                <g transform="matrix(1,0,0,1,448,-960)">
                    <circle cx="64" cy="960" r="64" style="fill:rgb(88,88,88);"/>
                </g>
                <g transform="matrix(1,0,0,1,576,-960)">
                    <circle cx="64" cy="960" r="64" style="fill:rgb(88,88,88);"/>
                </g>
                <g transform="matrix(1,0,0,1,704,-960)">
                    <circle cx="64" cy="960" r="64" style="fill:rgb(88,88,88);"/>
                </g>
                <g transform="matrix(1,0,0,1,832,-960)">
                    <circle cx="64" cy="960" r="64" style="fill:rgb(88,88,88);"/>
                </g>
                <g transform="matrix(1,0,0,1,960,-960)">
                    <circle cx="64" cy="960" r="64" style="fill:rgb(88,88,88);"/>
                </g>
                <g transform="matrix(6.12323e-17,-1,1,6.12323e-17,64,64)">
                    <circle cx="64" cy="960" r="64" style="fill:rgb(88,88,88);"/>
                </g>
            </g>
            <g id="_11" serif:id="1">
                <g transform="matrix(6.12323e-17,-1,1,6.12323e-17,-960,64)">
                    <circle cx="64" cy="960" r="64" style="fill:rgb(43,43,43);"/>
                </g>
                <g transform="matrix(1,0,0,1,-64,-960)">
                    <circle cx="64" cy="960" r="64" style="fill:rgb(43,43,43);"/>
                </g>
                <g transform="matrix(1,0,0,1,64,-960)">
                    <circle cx="64" cy="960" r="64" style="fill:rgb(43,43,43);"/>
                </g>
                <g transform="matrix(1,0,0,1,192,-960)">
                    <circle cx="64" cy="960" r="64" style="fill:rgb(43,43,43);"/>
                </g>
                <g transform="matrix(1,0,0,1,320,-960)">
                    <circle cx="64" cy="960" r="64" style="fill:rgb(43,43,43);"/>
                </g>
                <g transform="matrix(1,0,0,1,448,-960)">
                    <circle cx="64" cy="960" r="64" style="fill:rgb(43,43,43);"/>
                </g>
                <g transform="matrix(1,0,0,1,576,-960)">
                    <circle cx="64" cy="960" r="64" style="fill:rgb(43,43,43);"/>
                </g>
                <g transform="matrix(1,0,0,1,704,-960)">
                    <circle cx="64" cy="960" r="64" style="fill:rgb(43,43,43);"/>
                </g>
                <g transform="matrix(1,0,0,1,832,-960)">
                    <circle cx="64" cy="960" r="64" style="fill:rgb(43,43,43);"/>
                </g>
                <g transform="matrix(1,0,0,1,960,-960)">
                    <circle cx="64" cy="960" r="64" style="fill:rgb(43,43,43);"/>
                </g>
                <g transform="matrix(6.12323e-17,-1,1,6.12323e-17,64,64)">
                    <circle cx="64" cy="960" r="64" style="fill:rgb(43,43,43);"/>
                </g>
            </g>
        </g>
        <g id="_32" serif:id="3" transform="matrix(1,0,0,1,0,512)">
            <g id="_44" serif:id="4" transform="matrix(1,0,0,1,-64,192)">
                <g transform="matrix(1,0,0,1,64,-960)">
                    <circle cx="64" cy="960" r="64" style="fill:rgb(88,128,83);"/>
                </g>
                <g transform="matrix(1,0,0,1,192,-960)">
                    <circle cx="64" cy="960" r="64" style="fill:rgb(88,128,83);"/>
                </g>
                <g transform="matrix(1,0,0,1,320,-960)">
                    <circle cx="64" cy="960" r="64" style="fill:rgb(88,128,83);"/>
                </g>
                <g transform="matrix(1,0,0,1,448,-960)">
                    <circle cx="64" cy="960" r="64" style="fill:rgb(88,128,83);"/>
                </g>
                <g transform="matrix(1,0,0,1,576,-960)">
                    <circle cx="64" cy="960" r="64" style="fill:rgb(88,128,83);"/>
                </g>
                <g transform="matrix(1,0,0,1,704,-960)">
                    <circle cx="64" cy="960" r="64" style="fill:rgb(88,128,83);"/>
                </g>
                <g transform="matrix(1,0,0,1,832,-960)">
                    <circle cx="64" cy="960" r="64" style="fill:rgb(88,128,83);"/>
                </g>
                <g transform="matrix(1,0,0,1,960,-960)">
                    <circle cx="64" cy="960" r="64" style="fill:rgb(88,128,83);"/>
                </g>
                <g transform="matrix(6.12323e-17,-1,1,6.12323e-17,64,64)">
                    <circle cx="64" cy="960" r="64" style="fill:rgb(88,128,83);"/>
                </g>
            </g>
            <g id="_33" serif:id="3" transform="matrix(1,0,0,1,0,128)">
                <g transform="matrix(6.12323e-17,-1,1,6.12323e-17,-960,64)">
                    <circle cx="64" cy="960" r="64" style="fill:white;"/>
                </g>
                <g transform="matrix(1,0,0,1,-64,-960)">
                    <circle cx="64" cy="960" r="64" style="fill:white;"/>
                </g>
                <g transform="matrix(1,0,0,1,64,-960)">
                    <circle cx="64" cy="960" r="64" style="fill:white;"/>
                </g>
                <g transform="matrix(1,0,0,1,192,-960)">
                    <circle cx="64" cy="960" r="64" style="fill:white;"/>
                </g>
                <g transform="matrix(1,0,0,1,320,-960)">
                    <circle cx="64" cy="960" r="64" style="fill:white;"/>
                </g>
                <g transform="matrix(1,0,0,1,448,-960)">
                    <circle cx="64" cy="960" r="64" style="fill:white;"/>
                </g>
                <g transform="matrix(1,0,0,1,576,-960)">
                    <circle cx="64" cy="960" r="64" style="fill:white;"/>
                </g>
                <g transform="matrix(1,0,0,1,704,-960)">
                    <circle cx="64" cy="960" r="64" style="fill:white;"/>
                </g>
                <g transform="matrix(1,0,0,1,832,-960)">
                    <circle cx="64" cy="960" r="64" style="fill:white;"/>
                </g>
                <g transform="matrix(1,0,0,1,960,-960)">
                    <circle cx="64" cy="960" r="64" style="fill:white;"/>
                </g>
                <g transform="matrix(6.12323e-17,-1,1,6.12323e-17,64,64)">
                    <circle cx="64" cy="960" r="64" style="fill:white;"/>
                </g>
            </g>
            <g id="_22" serif:id="2" transform="matrix(1,0,0,1,-64,64)">
                <g transform="matrix(1,0,0,1,64,-960)">
                    <circle cx="64" cy="960" r="64" style="fill:rgb(88,88,88);"/>
                </g>
                <g transform="matrix(1,0,0,1,192,-960)">
                    <circle cx="64" cy="960" r="64" style="fill:rgb(88,88,88);"/>
                </g>
                <g transform="matrix(1,0,0,1,320,-960)">
                    <circle cx="64" cy="960" r="64" style="fill:rgb(88,88,88);"/>
                </g>
                <g transform="matrix(1,0,0,1,448,-960)">
                    <circle cx="64" cy="960" r="64" style="fill:rgb(88,88,88);"/>
                </g>
                <g transform="matrix(1,0,0,1,576,-960)">
                    <circle cx="64" cy="960" r="64" style="fill:rgb(88,88,88);"/>
                </g>
                <g transform="matrix(1,0,0,1,704,-960)">
                    <circle cx="64" cy="960" r="64" style="fill:rgb(88,88,88);"/>
                </g>
                <g transform="matrix(1,0,0,1,832,-960)">
                    <circle cx="64" cy="960" r="64" style="fill:rgb(88,88,88);"/>
                </g>
                <g transform="matrix(1,0,0,1,960,-960)">
                    <circle cx="64" cy="960" r="64" style="fill:rgb(88,88,88);"/>
                </g>
                <g transform="matrix(6.12323e-17,-1,1,6.12323e-17,64,64)">
                    <circle cx="64" cy="960" r="64" style="fill:rgb(88,88,88);"/>
                </g>
            </g>
            <g id="_12" serif:id="1">
                <g transform="matrix(6.12323e-17,-1,1,6.12323e-17,-960,64)">
                    <circle cx="64" cy="960" r="64" style="fill:rgb(43,43,43);"/>
                </g>
                <g transform="matrix(1,0,0,1,-64,-960)">
                    <circle cx="64" cy="960" r="64" style="fill:rgb(43,43,43);"/>
                </g>
                <g transform="matrix(1,0,0,1,64,-960)">
                    <circle cx="64" cy="960" r="64" style="fill:rgb(43,43,43);"/>
                </g>
                <g transform="matrix(1,0,0,1,192,-960)">
                    <circle cx="64" cy="960" r="64" style="fill:rgb(43,43,43);"/>
                </g>
                <g transform="matrix(1,0,0,1,320,-960)">
                    <circle cx="64" cy="960" r="64" style="fill:rgb(43,43,43);"/>
                </g>
                <g transform="matrix(1,0,0,1,448,-960)">
                    <circle cx="64" cy="960" r="64" style="fill:rgb(43,43,43);"/>
                </g>
                <g transform="matrix(1,0,0,1,576,-960)">
                    <circle cx="64" cy="960" r="64" style="fill:rgb(43,43,43);"/>
                </g>
                <g transform="matrix(1,0,0,1,704,-960)">
                    <circle cx="64" cy="960" r="64" style="fill:rgb(43,43,43);"/>
                </g>
                <g transform="matrix(1,0,0,1,832,-960)">
                    <circle cx="64" cy="960" r="64" style="fill:rgb(43,43,43);"/>
                </g>
                <g transform="matrix(1,0,0,1,960,-960)">
                    <circle cx="64" cy="960" r="64" style="fill:rgb(43,43,43);"/>
                </g>
                <g transform="matrix(6.12323e-17,-1,1,6.12323e-17,64,64)">
                    <circle cx="64" cy="960" r="64" style="fill:rgb(43,43,43);"/>
                </g>
            </g>
        </g>
        <g id="_23" serif:id="2" transform="matrix(1,0,0,1,0,256)">
            <g id="_45" serif:id="4" transform="matrix(1,0,0,1,-64,192)">
                <g transform="matrix(1,0,0,1,64,-960)">
                    <circle cx="64" cy="960" r="64" style="fill:rgb(88,128,83);"/>
                </g>
                <g transform="matrix(1,0,0,1,192,-960)">
                    <circle cx="64" cy="960" r="64" style="fill:rgb(88,128,83);"/>
                </g>
                <g transform="matrix(1,0,0,1,320,-960)">
                    <circle cx="64" cy="960" r="64" style="fill:rgb(88,128,83);"/>
                </g>
                <g transform="matrix(1,0,0,1,448,-960)">
                    <circle cx="64" cy="960" r="64" style="fill:rgb(88,128,83);"/>
                </g>
                <g transform="matrix(1,0,0,1,576,-960)">
                    <circle cx="64" cy="960" r="64" style="fill:rgb(88,128,83);"/>
                </g>
                <g transform="matrix(1,0,0,1,704,-960)">
                    <circle cx="64" cy="960" r="64" style="fill:rgb(88,128,83);"/>
                </g>
                <g transform="matrix(1,0,0,1,832,-960)">
                    <circle cx="64" cy="960" r="64" style="fill:rgb(88,128,83);"/>
                </g>
                <g transform="matrix(1,0,0,1,960,-960)">
                    <circle cx="64" cy="960" r="64" style="fill:rgb(88,128,83);"/>
                </g>
                <g transform="matrix(6.12323e-17,-1,1,6.12323e-17,64,64)">
                    <circle cx="64" cy="960" r="64" style="fill:rgb(88,128,83);"/>
                </g>
            </g>
            <g id="_34" serif:id="3" transform="matrix(1,0,0,1,0,128)">
                <g transform="matrix(6.12323e-17,-1,1,6.12323e-17,-960,64)">
                    <circle cx="64" cy="960" r="64" style="fill:white;"/>
                </g>
                <g transform="matrix(1,0,0,1,-64,-960)">
                    <circle cx="64" cy="960" r="64" style="fill:white;"/>
                </g>
                <g transform="matrix(1,0,0,1,64,-960)">
                    <circle cx="64" cy="960" r="64" style="fill:white;"/>
                </g>
                <g transform="matrix(1,0,0,1,192,-960)">
                    <circle cx="64" cy="960" r="64" style="fill:white;"/>
                </g>
                <g transform="matrix(1,0,0,1,320,-960)">
                    <circle cx="64" cy="960" r="64" style="fill:white;"/>
                </g>
                <g transform="matrix(1,0,0,1,448,-960)">
                    <circle cx="64" cy="960" r="64" style="fill:white;"/>
                </g>
                <g transform="matrix(1,0,0,1,576,-960)">
                    <circle cx="64" cy="960" r="64" style="fill:white;"/>
                </g>
                <g transform="matrix(1,0,0,1,704,-960)">
                    <circle cx="64" cy="960" r="64" style="fill:white;"/>
                </g>
                <g transform="matrix(1,0,0,1,832,-960)">
                    <circle cx="64" cy="960" r="64" style="fill:white;"/>
                </g>
                <g transform="matrix(1,0,0,1,960,-960)">
                    <circle cx="64" cy="960" r="64" style="fill:white;"/>
                </g>
                <g transform="matrix(6.12323e-17,-1,1,6.12323e-17,64,64)">
                    <circle cx="64" cy="960" r="64" style="fill:white;"/>
                </g>
            </g>
            <g id="_24" serif:id="2" transform="matrix(1,0,0,1,-64,64)">
                <g transform="matrix(1,0,0,1,64,-960)">
                    <circle cx="64" cy="960" r="64" style="fill:rgb(88,88,88);"/>
                </g>
                <g transform="matrix(1,0,0,1,192,-960)">
                    <circle cx="64" cy="960" r="64" style="fill:rgb(88,88,88);"/>
                </g>
                <g transform="matrix(1,0,0,1,320,-960)">
                    <circle cx="64" cy="960" r="64" style="fill:rgb(88,88,88);"/>
                </g>
                <g transform="matrix(1,0,0,1,448,-960)">
                    <circle cx="64" cy="960" r="64" style="fill:rgb(88,88,88);"/>
                </g>
                <g transform="matrix(1,0,0,1,576,-960)">
                    <circle cx="64" cy="960" r="64" style="fill:rgb(88,88,88);"/>
                </g>
                <g transform="matrix(1,0,0,1,704,-960)">
                    <circle cx="64" cy="960" r="64" style="fill:rgb(88,88,88);"/>
                </g>
                <g transform="matrix(1,0,0,1,832,-960)">
                    <circle cx="64" cy="960" r="64" style="fill:rgb(88,88,88);"/>
                </g>
                <g transform="matrix(1,0,0,1,960,-960)">
                    <circle cx="64" cy="960" r="64" style="fill:rgb(88,88,88);"/>
                </g>
                <g transform="matrix(6.12323e-17,-1,1,6.12323e-17,64,64)">
                    <circle cx="64" cy="960" r="64" style="fill:rgb(88,88,88);"/>
                </g>
            </g>
            <g id="_13" serif:id="1">
                <g transform="matrix(6.12323e-17,-1,1,6.12323e-17,-960,64)">
                    <circle cx="64" cy="960" r="64" style="fill:rgb(43,43,43);"/>
                </g>
                <g transform="matrix(1,0,0,1,-64,-960)">
                    <circle cx="64" cy="960" r="64" style="fill:rgb(43,43,43);"/>
                </g>
                <g transform="matrix(1,0,0,1,64,-960)">
                    <circle cx="64" cy="960" r="64" style="fill:rgb(43,43,43);"/>
                </g>
                <g transform="matrix(1,0,0,1,192,-960)">
                    <circle cx="64" cy="960" r="64" style="fill:rgb(43,43,43);"/>
                </g>
                <g transform="matrix(1,0,0,1,320,-960)">
                    <circle cx="64" cy="960" r="64" style="fill:rgb(43,43,43);"/>
                </g>
                <g transform="matrix(1,0,0,1,448,-960)">
                    <circle cx="64" cy="960" r="64" style="fill:rgb(43,43,43);"/>
                </g>
                <g transform="matrix(1,0,0,1,576,-960)">
                    <circle cx="64" cy="960" r="64" style="fill:rgb(43,43,43);"/>
                </g>
                <g transform="matrix(1,0,0,1,704,-960)">
                    <circle cx="64" cy="960" r="64" style="fill:rgb(43,43,43);"/>
                </g>
                <g transform="matrix(1,0,0,1,832,-960)">
                    <circle cx="64" cy="960" r="64" style="fill:rgb(43,43,43);"/>
                </g>
                <g transform="matrix(1,0,0,1,960,-960)">
                    <circle cx="64" cy="960" r="64" style="fill:rgb(43,43,43);"/>
                </g>
                <g transform="matrix(6.12323e-17,-1,1,6.12323e-17,64,64)">
                    <circle cx="64" cy="960" r="64" style="fill:rgb(43,43,43);"/>
                </g>
            </g>
        </g>
        <g id="_14" serif:id="1">
            <g id="_46" serif:id="4" transform="matrix(1,0,0,1,-64,192)">
                <g transform="matrix(1,0,0,1,64,-960)">
                    <circle cx="64" cy="960" r="64" style="fill:rgb(88,128,83);"/>
                </g>
                <g transform="matrix(1,0,0,1,192,-960)">
                    <circle cx="64" cy="960" r="64" style="fill:rgb(88,128,83);"/>
                </g>
                <g transform="matrix(1,0,0,1,320,-960)">
                    <circle cx="64" cy="960" r="64" style="fill:rgb(88,128,83);"/>
                </g>
                <g transform="matrix(1,0,0,1,448,-960)">
                    <circle cx="64" cy="960" r="64" style="fill:rgb(88,128,83);"/>
                </g>
                <g transform="matrix(1,0,0,1,576,-960)">
                    <circle cx="64" cy="960" r="64" style="fill:rgb(88,128,83);"/>
                </g>
                <g transform="matrix(1,0,0,1,704,-960)">
                    <circle cx="64" cy="960" r="64" style="fill:rgb(88,128,83);"/>
                </g>
                <g transform="matrix(1,0,0,1,832,-960)">
                    <circle cx="64" cy="960" r="64" style="fill:rgb(88,128,83);"/>
                </g>
                <g transform="matrix(1,0,0,1,960,-960)">
                    <circle cx="64" cy="960" r="64" style="fill:rgb(88,128,83);"/>
                </g>
                <g transform="matrix(6.12323e-17,-1,1,6.12323e-17,64,64)">
                    <circle cx="64" cy="960" r="64" style="fill:rgb(88,128,83);"/>
                </g>
            </g>
            <g id="_35" serif:id="3" transform="matrix(1,0,0,1,0,128)">
                <g transform="matrix(6.12323e-17,-1,1,6.12323e-17,-960,64)">
                    <circle cx="64" cy="960" r="64" style="fill:white;"/>
                </g>
                <g transform="matrix(1,0,0,1,-64,-960)">
                    <circle cx="64" cy="960" r="64" style="fill:white;"/>
                </g>
                <g transform="matrix(1,0,0,1,64,-960)">
                    <circle cx="64" cy="960" r="64" style="fill:white;"/>
                </g>
                <g transform="matrix(1,0,0,1,192,-960)">
                    <circle cx="64" cy="960" r="64" style="fill:white;"/>
                </g>
                <g transform="matrix(1,0,0,1,320,-960)">
                    <circle cx="64" cy="960" r="64" style="fill:white;"/>
                </g>
                <g transform="matrix(1,0,0,1,448,-960)">
                    <circle cx="64" cy="960" r="64" style="fill:white;"/>
                </g>
                <g transform="matrix(1,0,0,1,576,-960)">
                    <circle cx="64" cy="960" r="64" style="fill:white;"/>
                </g>
                <g transform="matrix(1,0,0,1,704,-960)">
                    <circle cx="64" cy="960" r="64" style="fill:white;"/>
                </g>
                <g transform="matrix(1,0,0,1,832,-960)">
                    <circle cx="64" cy="960" r="64" style="fill:white;"/>
                </g>
                <g transform="matrix(1,0,0,1,960,-960)">
                    <circle cx="64" cy="960" r="64" style="fill:white;"/>
                </g>
                <g transform="matrix(6.12323e-17,-1,1,6.12323e-17,64,64)">
                    <circle cx="64" cy="960" r="64" style="fill:white;"/>
                </g>
            </g>
            <g id="_25" serif:id="2" transform="matrix(1,0,0,1,-64,64)">
                <g transform="matrix(1,0,0,1,64,-960)">
                    <circle cx="64" cy="960" r="64" style="fill:rgb(88,88,88);"/>
                </g>
                <g transform="matrix(1,0,0,1,192,-960)">
                    <circle cx="64" cy="960" r="64" style="fill:rgb(88,88,88);"/>
                </g>
                <g transform="matrix(1,0,0,1,320,-960)">
                    <circle cx="64" cy="960" r="64" style="fill:rgb(88,88,88);"/>
                </g>
                <g transform="matrix(1,0,0,1,448,-960)">
                    <circle cx="64" cy="960" r="64" style="fill:rgb(88,88,88);"/>
                </g>
                <g transform="matrix(1,0,0,1,576,-960)">
                    <circle cx="64" cy="960" r="64" style="fill:rgb(88,88,88);"/>
                </g>
                <g transform="matrix(1,0,0,1,704,-960)">
                    <circle cx="64" cy="960" r="64" style="fill:rgb(88,88,88);"/>
                </g>
                <g transform="matrix(1,0,0,1,832,-960)">
                    <circle cx="64" cy="960" r="64" style="fill:rgb(88,88,88);"/>
                </g>
                <g transform="matrix(1,0,0,1,960,-960)">
                    <circle cx="64" cy="960" r="64" style="fill:rgb(88,88,88);"/>
                </g>
                <g transform="matrix(6.12323e-17,-1,1,6.12323e-17,64,64)">
                    <circle cx="64" cy="960" r="64" style="fill:rgb(88,88,88);"/>
                </g>
            </g>
            <g id="_15" serif:id="1">
                <g transform="matrix(6.12323e-17,-1,1,6.12323e-17,-960,64)">
                    <circle cx="64" cy="960" r="64" style="fill:rgb(43,43,43);"/>
                </g>
                <g transform="matrix(1,0,0,1,-64,-960)">
                    <circle cx="64" cy="960" r="64" style="fill:rgb(43,43,43);"/>
                </g>
                <g transform="matrix(1,0,0,1,64,-960)">
                    <circle cx="64" cy="960" r="64" style="fill:rgb(43,43,43);"/>
                </g>
                <g transform="matrix(1,0,0,1,192,-960)">
                    <circle cx="64" cy="960" r="64" style="fill:rgb(43,43,43);"/>
                </g>
                <g transform="matrix(1,0,0,1,320,-960)">
                    <circle cx="64" cy="960" r="64" style="fill:rgb(43,43,43);"/>
                </g>
                <g transform="matrix(1,0,0,1,448,-960)">
                    <circle cx="64" cy="960" r="64" style="fill:rgb(43,43,43);"/>
                </g>
                <g transform="matrix(1,0,0,1,576,-960)">
                    <circle cx="64" cy="960" r="64" style="fill:rgb(43,43,43);"/>
                </g>
                <g transform="matrix(1,0,0,1,704,-960)">
                    <circle cx="64" cy="960" r="64" style="fill:rgb(43,43,43);"/>
                </g>
                <g transform="matrix(1,0,0,1,832,-960)">
                    <circle cx="64" cy="960" r="64" style="fill:rgb(43,43,43);"/>
                </g>
                <g transform="matrix(1,0,0,1,960,-960)">
                    <circle cx="64" cy="960" r="64" style="fill:rgb(43,43,43);"/>
                </g>
                <g transform="matrix(6.12323e-17,-1,1,6.12323e-17,64,64)">
                    <circle cx="64" cy="960" r="64" style="fill:rgb(43,43,43);"/>
                </g>
            </g>
        </g>
    </g>
</svg>
