<?xml version="1.0" standalone="no"?>
<!DOCTYPE svg PUBLIC "-//W3C//DTD SVG 20010904//EN"
 "http://www.w3.org/TR/2001/REC-SVG-20010904/DTD/svg10.dtd">
<svg version="1.0" xmlns="http://www.w3.org/2000/svg"
 width="4096.000000pt" height="4096.000000pt" viewBox="0 0 4096.000000 4096.000000"
 preserveAspectRatio="xMidYMid meet">
<metadata>
Created by potrace 1.14, written by Peter Selinger 2001-2017
</metadata>
<g transform="translate(0.000000,4096.000000) scale(0.100000,-0.100000)"
fill="#000000" stroke="none">
<path d="M11118 34656 c-23 -23 -72 -77 -108 -120 -36 -43 -76 -90 -88 -104
-13 -15 -70 -88 -125 -162 -56 -74 -104 -137 -107 -140 -3 -3 -37 -52 -75
-110 -38 -58 -72 -107 -76 -110 -3 -3 -14 -18 -23 -35 -9 -16 -43 -73 -76
-125 -89 -144 -218 -378 -298 -543 -40 -81 -72 -149 -72 -151 0 -3 -16 -39
-35 -80 -19 -42 -35 -79 -35 -82 0 -3 -7 -20 -15 -37 -67 -146 -192 -510 -271
-787 -22 -79 -97 -384 -108 -440 -2 -14 -9 -45 -15 -70 -5 -25 -13 -61 -16
-80 -5 -32 -32 -177 -41 -224 -2 -11 -8 -54 -14 -96 -6 -42 -12 -85 -14 -96
-2 -10 -7 -44 -11 -74 -7 -58 -10 -81 -19 -145 -22 -158 -33 -301 -41 -518 -2
-84 -8 -224 -12 -312 -9 -204 -9 -614 1 -820 11 -247 12 -258 31 -505 2 -25 6
-83 10 -130 3 -47 10 -105 14 -130 12 -60 12 -90 0 -90 -5 0 -9 4 -9 10 0 5
-48 141 -106 302 -96 264 -394 1146 -425 1258 -15 53 -14 51 -21 70 -3 8 -15
47 -26 85 -47 159 -87 285 -92 284 -3 0 -25 -25 -50 -55 -72 -89 -89 -109
-205 -240 -92 -104 -496 -508 -610 -610 -130 -116 -251 -222 -320 -279 -33
-28 -62 -53 -65 -56 -26 -30 -658 -519 -791 -611 -37 -26 -125 -88 -195 -139
-71 -51 -214 -149 -319 -217 -104 -69 -215 -141 -245 -161 -30 -20 -66 -43
-80 -51 -278 -162 -390 -235 -391 -254 0 -12 -2 -30 -4 -41 -2 -11 -7 -42 -10
-69 -4 -27 -9 -58 -11 -70 -2 -12 -6 -37 -9 -56 -2 -19 -7 -53 -11 -75 -3 -22
-7 -51 -9 -65 -18 -123 -48 -321 -60 -390 -8 -47 -17 -105 -20 -130 -6 -43
-13 -86 -50 -295 -9 -49 -18 -101 -20 -115 -3 -14 -7 -35 -9 -46 -2 -12 -7
-37 -10 -55 -3 -19 -12 -68 -21 -109 -9 -41 -18 -86 -20 -100 -7 -54 -16 -90
-25 -116 -6 -15 -8 -29 -6 -31 3 -3 0 -16 -5 -30 -5 -14 -12 -42 -15 -62 -8
-47 -134 -541 -168 -656 -38 -127 -114 -364 -131 -405 -7 -19 -44 -116 -81
-215 -96 -258 -107 -281 -182 -350 -62 -58 -559 -557 -618 -621 -16 -17 -60
-64 -99 -105 -65 -69 -233 -252 -280 -304 -11 -12 -56 -61 -100 -110 -44 -48
-87 -96 -96 -106 -9 -11 -52 -58 -95 -106 -44 -47 -87 -95 -97 -107 -25 -29
-159 -177 -232 -256 -113 -123 -530 -533 -650 -639 -66 -58 -125 -110 -131
-115 -106 -98 -441 -365 -545 -435 -63 -42 -63 -43 -74 -331 -3 -85 -8 -189
-11 -230 -2 -41 -7 -109 -9 -150 -5 -88 -13 -201 -20 -285 -3 -33 -7 -87 -10
-120 -8 -98 -16 -178 -20 -215 -2 -19 -7 -64 -10 -100 -7 -73 -11 -105 -19
-170 -17 -134 -28 -234 -33 -312 l-6 -87 29 -12 c16 -7 43 -18 59 -25 342
-146 698 -269 985 -338 195 -47 199 -48 275 -61 63 -11 57 -10 80 -17 11 -4
40 -9 65 -12 25 -3 56 -8 70 -11 14 -3 43 -7 65 -10 22 -3 78 -12 125 -19 118
-20 209 -28 460 -41 69 -4 141 -9 160 -11 40 -5 403 -5 470 0 25 2 98 7 164
11 65 4 130 8 145 10 14 2 64 6 111 10 47 4 93 9 104 11 10 2 44 6 75 9 31 4
67 8 81 11 14 2 52 9 85 14 33 5 71 12 85 14 14 3 41 7 60 10 19 3 46 8 60 11
40 9 160 7 230 -4 36 -5 90 -13 120 -16 30 -3 62 -8 70 -10 8 -2 35 -7 60 -10
64 -7 109 -13 155 -20 22 -4 52 -8 68 -11 31 -5 33 -5 228 -39 79 -13 155 -27
169 -29 14 -3 54 -10 90 -16 104 -19 113 -21 160 -31 25 -6 56 -13 70 -15 63
-11 224 -45 305 -65 50 -11 101 -23 115 -26 14 -2 142 -33 285 -69 143 -36
267 -67 275 -69 32 -7 215 -60 442 -127 130 -38 255 -69 278 -70 38 0 147 45
190 78 21 17 332 170 420 208 356 150 749 269 1095 331 97 18 283 45 340 51
39 3 78 8 88 10 134 25 817 25 977 0 14 -3 59 -7 100 -10 41 -4 86 -8 100 -10
14 -3 54 -7 90 -11 36 -3 81 -7 100 -10 19 -2 62 -6 95 -10 33 -3 67 -8 75
-10 8 -2 40 -6 70 -10 107 -11 331 -53 590 -110 26 -5 281 -73 380 -100 201
-55 665 -217 808 -281 29 -13 55 -24 57 -24 12 0 289 -127 445 -204 208 -102
371 -189 520 -278 57 -34 138 -78 143 -78 13 0 -154 504 -207 624 -8 17 -19
47 -27 66 -7 19 -22 58 -34 85 -12 28 -44 100 -70 160 -139 318 -382 752 -603
1075 -68 99 -307 420 -339 455 -10 11 -44 52 -75 90 -31 39 -75 90 -98 115
-87 95 -103 119 -85 126 18 7 451 -2 475 -9 8 -3 60 -8 115 -11 55 -3 109 -8
120 -10 11 -2 46 -7 79 -11 32 -3 68 -8 80 -10 11 -2 44 -6 71 -10 85 -10 118
-15 170 -26 28 -5 61 -11 75 -14 33 -7 126 -23 170 -30 19 -3 51 -10 70 -15
33 -9 147 -35 200 -46 160 -33 532 -133 785 -211 83 -25 177 -54 210 -63 78
-24 274 -89 300 -100 11 -5 38 -14 60 -21 22 -6 74 -24 115 -39 41 -16 163
-60 270 -100 166 -61 609 -234 705 -274 154 -66 407 -167 411 -164 12 13 -270
575 -366 728 -5 8 -28 47 -51 85 -126 209 -338 508 -508 715 -223 272 -542
604 -756 785 -33 28 -77 66 -100 85 -88 77 -157 133 -286 229 -74 55 -139 105
-145 110 -18 15 -318 214 -384 254 l-62 38 44 28 c124 79 374 244 378 250 3 4
19 15 35 26 132 83 439 328 695 554 104 91 459 447 555 556 44 50 83 92 86 95
3 3 57 68 120 145 257 314 482 637 693 997 74 126 241 440 245 460 1 4 13 32
26 62 30 68 40 106 28 106 -8 0 -129 -49 -198 -80 -50 -23 -541 -216 -635
-250 -58 -21 -150 -54 -205 -74 -153 -56 -552 -188 -665 -221 -25 -7 -98 -29
-162 -49 -64 -20 -126 -36 -138 -36 l-22 0 21 33 c21 32 198 323 216 355 6 10
29 49 52 87 272 455 591 1224 732 1765 5 19 17 60 25 90 14 49 34 135 50 210
25 120 66 323 71 355 3 22 7 51 10 65 2 14 11 77 20 140 9 63 18 126 20 140 3
14 7 50 11 80 3 30 8 57 9 60 2 3 6 41 10 85 4 44 9 89 11 99 2 11 6 56 9 100
3 45 8 106 11 136 8 106 15 842 7 837 -4 -3 -42 -21 -83 -40 -41 -19 -138 -65
-215 -102 -77 -37 -169 -80 -205 -97 -36 -17 -139 -66 -229 -109 -90 -44 -165
-79 -166 -79 -2 0 -72 -33 -157 -74 -84 -40 -193 -93 -243 -116 -49 -23 -137
-65 -195 -93 -58 -27 -141 -67 -185 -87 -44 -21 -138 -65 -209 -99 -71 -34
-130 -60 -132 -59 -1 2 -5 39 -9 83 -3 44 -8 100 -11 125 -2 25 -6 74 -9 110
-5 61 -39 305 -50 360 -3 14 -9 48 -15 75 -46 235 -160 640 -235 840 -15 39
-37 99 -50 135 -41 116 -150 360 -247 555 -201 404 -439 792 -727 1180 -66 90
-208 272 -221 285 -3 3 -41 48 -85 100 -71 85 -119 139 -165 190 -8 9 -57 63
-109 121 -100 111 -508 520 -602 604 -142 127 -201 178 -295 257 -104 89 -353
285 -414 328 -19 13 -39 28 -45 33 -121 100 -557 382 -835 539 -234 133 -240
135 -302 74z m513 -1713 c123 -127 217 -229 279 -303 25 -29 70 -83 101 -119
31 -36 100 -122 153 -191 53 -69 106 -136 117 -150 50 -65 71 -93 145 -200 91
-131 243 -360 268 -405 9 -16 34 -59 56 -94 22 -34 40 -64 40 -66 0 -1 23 -41
50 -89 28 -48 73 -131 101 -184 29 -54 57 -108 65 -122 23 -44 120 -252 153
-330 18 -41 39 -88 46 -105 102 -227 271 -751 311 -960 4 -22 8 -44 9 -50 15
-64 43 -220 49 -274 4 -30 9 -64 11 -75 15 -66 29 -298 29 -486 0 -243 -14
-387 -58 -605 -13 -63 -49 -208 -68 -269 -12 -39 -23 -73 -23 -76 -1 -11 -48
-137 -66 -177 -11 -24 -19 -45 -19 -48 0 -13 -61 -134 -70 -140 -6 -4 -10 14
-11 47 -1 29 -3 64 -4 78 -3 21 -11 174 -20 370 -7 162 -17 326 -20 330 -2 3
-6 41 -10 85 -8 95 -11 119 -24 205 -6 36 -13 79 -15 95 -52 348 -148 691
-251 897 -34 66 -108 188 -115 188 -3 0 -25 -19 -50 -41 -171 -154 -474 -343
-670 -419 -30 -11 -64 -25 -75 -29 -27 -12 -147 -51 -157 -51 -4 0 21 57 56
128 155 310 236 568 292 927 40 261 6 500 -103 736 l-35 77 -47 -13 c-25 -7
-84 -25 -131 -41 -47 -15 -90 -29 -95 -30 -10 -1 -263 -82 -525 -166 -207 -66
-414 -139 -429 -152 -8 -6 -17 -10 -20 -9 -11 5 -152 -57 -350 -154 -106 -51
-195 -92 -197 -91 -1 2 10 57 26 123 45 189 141 490 219 690 17 44 31 83 31
87 0 9 132 330 170 412 15 34 38 84 50 111 34 77 172 353 210 420 18 33 44 80
58 105 51 94 146 257 180 310 102 160 264 400 271 400 4 0 54 -48 112 -107z
m-1752 -7375 c-13 -32 -51 -94 -234 -373 -126 -193 -248 -382 -260 -402 -5 -9
-14 -22 -18 -27 -5 -6 -40 -60 -79 -121 -39 -60 -108 -166 -152 -235 -45 -69
-113 -174 -151 -234 -113 -175 -115 -177 -225 -207 -36 -9 -157 -43 -270 -74
-113 -31 -212 -58 -220 -60 -25 -7 -264 -70 -465 -125 -104 -28 -224 -60 -265
-71 -41 -11 -89 -24 -106 -30 -17 -5 -42 -12 -55 -14 -23 -5 -271 -72 -297
-80 -16 -6 17 43 67 101 20 22 47 53 61 70 14 16 102 119 195 229 357 420 479
562 525 611 38 39 94 75 267 169 120 65 236 128 258 140 34 19 183 99 480 260
62 33 269 145 365 198 30 16 78 42 105 57 73 40 166 90 285 153 58 30 125 67
150 81 24 14 46 23 48 21 3 -2 -1 -19 -9 -37z"/>
<path d="M5608 33833 c-7 -14 6 -529 17 -708 6 -95 15 -217 19 -255 2 -19 7
-71 10 -115 4 -44 9 -102 11 -130 6 -74 16 -176 20 -210 2 -16 7 -66 10 -110
4 -44 9 -96 12 -115 2 -19 6 -48 7 -65 6 -55 28 -227 32 -249 2 -11 6 -37 9
-57 3 -19 14 -87 26 -150 11 -63 22 -121 23 -129 1 -8 6 -28 9 -45 4 -16 9
-46 12 -65 3 -19 8 -43 11 -52 3 -9 6 -25 9 -35 48 -239 173 -691 250 -903 89
-245 106 -289 199 -505 45 -104 328 -668 375 -747 l23 -37 81 51 c153 96 452
307 482 342 6 6 42 37 80 68 142 115 362 331 542 533 77 86 82 107 53 223 -76
306 -211 627 -387 925 -61 103 -248 385 -263 397 -3 3 -40 50 -83 106 -42 55
-87 112 -100 125 -12 14 -33 39 -46 55 -12 16 -53 62 -89 103 -37 41 -75 83
-85 95 -10 12 -82 88 -160 170 -195 205 -217 228 -228 249 -9 17 -8 18 13 12
225 -65 916 -476 1203 -716 241 -201 315 -269 490 -445 162 -162 266 -276 375
-411 8 -10 35 -43 60 -72 l45 -54 6 29 c4 16 37 117 74 224 37 107 69 204 71
214 2 11 15 54 28 95 27 80 51 164 93 321 29 111 25 96 57 230 14 58 28 114
31 126 5 17 -21 39 -182 151 -674 468 -934 628 -1388 857 -339 171 -525 252
-875 380 -80 29 -219 77 -310 105 -91 29 -192 61 -225 72 -90 28 -386 116
-417 123 -15 3 -28 3 -30 -1z"/>
<path d="M18315 28457 c-2 -7 -9 -52 -15 -102 -6 -49 -13 -101 -15 -115 -2
-14 -6 -46 -9 -72 -6 -50 -9 -70 -26 -191 -12 -85 -14 -92 -29 -182 -6 -33
-13 -78 -16 -100 -9 -59 -33 -191 -67 -360 -29 -148 -34 -174 -42 -217 -11
-57 -47 -221 -66 -296 -11 -45 -22 -96 -25 -114 -3 -17 -8 -34 -10 -38 -5 -9
-46 -193 -42 -195 1 -1 74 -14 162 -28 88 -15 171 -29 185 -31 14 -3 36 -7 50
-10 229 -42 572 -145 820 -246 232 -95 278 -116 436 -196 302 -154 533 -303
852 -551 51 -40 100 -73 108 -73 9 0 14 12 15 38 0 20 3 109 6 197 11 327 6
707 -12 895 -2 25 -7 74 -10 110 -7 72 -10 103 -25 205 -5 39 -12 93 -16 120
-15 125 -53 315 -70 350 -22 48 -300 329 -414 419 -97 77 -333 235 -430 288
-67 37 -224 116 -320 161 -137 65 -537 217 -610 232 -8 2 -35 11 -60 20 -52
19 -182 60 -253 80 -36 10 -49 11 -52 2z"/>
<path d="M28381 27187 c339 -336 672 -671 740 -743 68 -72 192 -202 276 -290
83 -87 168 -177 190 -200 44 -47 261 -278 313 -333 19 -21 71 -75 115 -122 44
-47 118 -127 165 -178 99 -109 125 -138 188 -206 26 -28 97 -107 157 -175 61
-69 115 -130 120 -136 115 -129 255 -290 300 -345 11 -13 92 -109 180 -214 88
-104 211 -253 273 -330 62 -77 121 -149 130 -160 403 -482 730 -957 928 -1348
42 -82 74 -150 72 -152 -5 -5 -323 110 -508 185 -153 61 -418 175 -659 284
-69 31 -127 56 -131 56 -3 0 -5 -17 -4 -37 1 -21 5 -108 9 -193 3 -85 8 -171
10 -190 5 -39 16 -130 21 -174 2 -16 11 -70 20 -120 8 -50 17 -107 20 -126 3
-19 10 -51 15 -70 11 -43 11 -53 1 -46 -5 3 -46 8 -91 11 -44 3 -98 8 -119 10
-20 2 -82 6 -137 10 -55 3 -116 8 -135 10 -19 2 -78 7 -130 10 -52 3 -111 8
-130 10 -19 3 -62 7 -95 10 -33 2 -76 7 -95 9 -19 3 -57 8 -85 11 -80 9 -360
51 -409 61 -11 2 -37 7 -56 10 -33 5 -55 8 -110 19 -14 3 -38 8 -55 11 -129
23 -289 59 -339 75 -81 27 -89 31 -401 184 -148 73 -304 148 -345 168 -41 19
-138 65 -215 102 -77 37 -167 80 -200 95 -88 41 -248 116 -340 160 -182 86
-269 126 -440 202 -99 44 -199 88 -222 99 -23 10 -44 19 -48 19 -3 0 -28 11
-57 25 -28 14 -55 25 -60 25 -5 0 -27 9 -51 20 -219 100 -884 348 -1412 525
-430 144 -1026 315 -1397 401 -10 2 -26 6 -35 8 -39 9 -119 28 -133 31 -8 2
-85 20 -170 40 -85 20 -162 38 -170 40 -8 2 -76 17 -151 34 -75 17 -150 33
-165 35 -16 3 -85 17 -154 32 -69 14 -136 28 -150 30 -14 3 -50 9 -80 14 -30
6 -66 12 -80 15 -54 11 -147 27 -175 32 -16 2 -41 6 -55 9 -14 2 -106 17 -205
33 -172 29 -211 35 -290 46 -19 3 -52 8 -72 11 -21 3 -54 7 -73 10 -19 2 -60
9 -90 14 -30 5 -75 12 -100 15 -25 3 -56 8 -70 10 -14 3 -45 7 -70 10 -43 5
-70 8 -155 20 -130 17 -577 72 -645 80 -30 3 -73 8 -95 10 -22 3 -62 7 -90 10
-27 3 -66 8 -85 10 -72 9 -116 15 -170 20 -30 3 -71 7 -90 10 -19 2 -66 7
-105 10 -38 3 -86 8 -105 10 -39 4 -130 12 -220 20 -33 3 -86 7 -117 10 -32 2
-94 8 -138 11 -129 11 -206 11 -202 1 2 -6 109 -46 238 -89 128 -43 257 -87
284 -97 28 -10 75 -28 105 -39 165 -60 657 -264 817 -338 28 -13 55 -24 58
-24 3 0 45 -19 93 -41 77 -37 162 -76 377 -174 104 -47 754 -371 915 -456 161
-85 682 -364 760 -407 475 -265 497 -278 608 -343 45 -27 87 -49 92 -49 6 0
10 -4 10 -10 0 -5 4 -10 9 -10 14 0 153 -81 729 -427 20 -13 64 -39 97 -58
167 -98 833 -525 1045 -670 58 -39 170 -116 250 -170 80 -54 188 -129 240
-166 52 -38 119 -85 149 -106 85 -60 363 -262 406 -296 6 -4 100 -76 210 -159
110 -83 202 -154 205 -158 3 -3 48 -39 100 -80 52 -40 97 -76 100 -80 3 -3 41
-35 85 -70 179 -144 173 -133 190 -360 7 -94 49 -347 76 -460 11 -47 22 -92
24 -100 49 -223 187 -621 318 -910 13 -30 66 -149 117 -265 51 -115 115 -257
141 -314 27 -57 49 -105 49 -108 0 -3 16 -39 36 -81 45 -94 95 -214 91 -218
-1 -2 -47 6 -102 17 -55 10 -113 22 -130 25 -16 3 -118 23 -225 44 -107 21
-206 41 -220 43 -230 42 -311 57 -340 61 -19 3 -73 12 -120 21 -47 8 -105 18
-130 21 -25 3 -83 12 -130 19 -47 8 -103 17 -125 20 -23 3 -50 7 -60 9 -11 2
-51 7 -90 11 -38 4 -79 9 -90 11 -11 2 -42 6 -70 9 -27 3 -68 8 -90 11 -22 4
-51 8 -65 9 -32 4 -125 14 -170 20 -19 2 -60 7 -90 10 -30 3 -72 8 -94 11 -68
9 -196 13 -196 5 0 -4 42 -46 93 -93 111 -104 240 -235 297 -303 23 -27 52
-61 64 -75 77 -89 218 -291 308 -440 62 -103 348 -592 385 -660 185 -335 418
-647 667 -895 338 -337 725 -599 1291 -874 l190 -92 -195 -97 c-199 -100 -403
-212 -520 -286 -193 -122 -451 -305 -433 -307 22 -3 89 -7 193 -13 168 -10
210 -14 375 -42 258 -43 556 -141 932 -305 272 -119 258 -113 333 -147 36 -16
117 -53 180 -82 63 -29 153 -70 200 -92 67 -32 348 -157 565 -253 17 -7 73
-30 125 -50 52 -21 113 -45 135 -55 102 -44 387 -147 620 -224 192 -64 235
-81 225 -89 -3 -2 -50 -23 -105 -46 -322 -139 -583 -275 -853 -444 -83 -52
-140 -93 -134 -99 9 -9 35 -15 102 -23 96 -12 180 -24 280 -40 47 -8 102 -16
122 -19 21 -3 59 -11 85 -17 27 -6 56 -12 65 -14 83 -17 341 -102 393 -129 17
-9 34 -16 38 -16 17 0 227 -109 320 -165 54 -33 106 -64 115 -70 18 -11 159
-114 189 -139 10 -8 79 -63 153 -123 74 -59 140 -112 146 -118 7 -5 20 -17 30
-25 44 -35 249 -205 254 -210 34 -36 391 -305 490 -368 36 -23 70 -45 76 -49
45 -34 273 -163 401 -227 278 -139 733 -298 1033 -361 8 -2 35 -8 60 -14 25
-5 56 -12 70 -15 142 -28 281 -54 472 -86 125 -21 236 -44 248 -50 18 -10 51
-56 100 -141 56 -98 184 -299 189 -299 20 0 109 68 171 130 194 197 362 568
406 895 3 28 7 52 9 55 10 17 20 194 20 365 0 200 -6 301 -24 405 -6 30 -12
71 -15 90 -3 19 -10 60 -16 90 -6 30 -13 66 -16 80 -2 14 -7 36 -11 50 -3 14
-7 27 -7 30 -1 3 -14 60 -30 127 -31 129 -34 132 -78 91 -7 -7 -52 -47 -98
-88 -47 -41 -92 -81 -101 -90 -9 -8 -46 -42 -83 -75 -38 -33 -91 -82 -120
-108 -80 -75 -224 -180 -306 -225 -155 -85 -342 -142 -467 -143 -107 0 -118 3
-308 96 -82 40 -269 132 -415 203 -255 124 -394 206 -510 300 -69 57 -230 219
-230 232 0 10 36 9 255 -5 150 -10 917 -3 1005 9 14 2 33 4 44 5 32 2 1 27
-72 56 -325 132 -520 214 -632 267 -140 67 -522 281 -540 303 -7 8 -17 15 -22
15 -17 0 -413 270 -463 317 -11 10 -35 30 -53 46 -44 35 -32 35 136 -8 75 -20
151 -38 167 -41 143 -26 292 -51 354 -59 30 -4 61 -8 70 -10 9 -1 51 -6 94 -9
42 -3 112 -9 154 -12 106 -9 101 -2 -87 104 -224 126 -562 367 -765 546 -86
76 -303 293 -347 348 -18 22 -55 66 -82 97 -27 31 -56 67 -65 81 -9 14 -41 59
-72 100 -213 288 -384 638 -474 975 -32 122 -51 227 -73 405 -10 75 -7 434 3
500 40 262 63 366 113 510 17 50 60 150 67 158 3 4 90 -34 219 -93 39 -18 123
-56 186 -85 63 -28 148 -67 188 -86 40 -19 75 -34 77 -34 2 0 43 -18 92 -41
182 -85 221 -103 348 -159 294 -131 625 -296 802 -399 68 -39 125 -71 127 -71
10 0 142 -86 165 -107 l25 -22 -40 -58 c-168 -246 -435 -492 -706 -652 -100
-59 -151 -100 -128 -102 54 -5 255 -3 305 3 33 4 89 10 125 14 36 3 72 7 80 9
8 2 44 6 80 10 36 4 74 9 85 11 11 2 40 7 65 10 118 15 209 31 365 65 77 17
147 33 156 34 47 9 306 80 389 107 191 61 238 77 368 127 73 28 144 52 159 53
27 3 27 2 27 -52 -1 -225 -116 -588 -245 -777 -16 -23 -29 -44 -29 -48 0 -11
-119 -164 -170 -218 -27 -29 -50 -58 -50 -65 0 -7 4 -11 9 -8 5 3 28 8 52 10
43 5 93 12 154 21 17 3 48 7 70 10 88 13 297 57 405 86 63 17 123 33 134 35
10 2 99 30 197 64 183 61 340 124 511 203 l97 45 5 -26 c36 -178 41 -417 12
-572 -31 -172 -91 -353 -154 -470 -69 -128 -96 -175 -102 -180 -3 -3 -16 -22
-29 -43 l-23 -38 38 18 c85 39 235 120 333 180 57 35 105 63 107 63 11 0 363
245 476 330 25 20 27 20 36 3 10 -19 115 -277 162 -398 43 -112 103 -260 106
-264 2 -2 54 17 116 44 187 79 275 98 463 98 231 2 373 -28 560 -118 146 -70
223 -127 378 -278 44 -42 81 -76 83 -75 1 2 5 30 9 63 3 33 8 67 10 75 2 8 7
51 11 95 3 44 8 88 9 97 2 9 6 45 10 80 3 35 8 74 10 88 2 14 7 53 10 88 4 35
8 71 10 81 2 10 6 58 10 107 4 49 9 91 10 94 9 15 20 216 20 370 -1 153 -7
267 -20 349 -2 13 -8 45 -12 70 -4 25 -8 48 -8 51 -1 3 -5 28 -9 55 -10 63
-72 338 -125 555 -34 140 -64 270 -76 330 -2 8 -8 35 -15 60 -7 25 -14 56 -16
70 -3 14 -9 50 -14 80 -27 160 -38 353 -25 465 16 153 40 252 115 490 27 87
50 162 50 166 0 10 -137 -35 -215 -72 -39 -18 -106 -54 -150 -81 -81 -49 -97
-61 -362 -269 -82 -63 -164 -125 -184 -137 l-37 -22 -25 42 c-14 24 -34 59
-45 78 -11 19 -61 107 -112 195 -283 488 -402 754 -444 990 -3 17 -8 43 -12
59 -13 58 -20 294 -10 341 2 11 7 40 11 65 9 57 43 172 68 230 10 25 21 59 24
75 l5 30 -24 -21 c-12 -12 -44 -35 -70 -52 -25 -18 -52 -38 -60 -44 -7 -7 -44
-38 -83 -69 -127 -103 -310 -290 -495 -509 -63 -74 -117 -137 -120 -140 -3 -3
-19 -22 -37 -42 l-32 -38 -33 28 c-18 15 -41 34 -52 42 -252 196 -521 542
-692 890 -197 402 -299 911 -261 1308 4 41 9 77 11 80 2 4 7 30 10 57 26 194
123 448 264 690 l41 69 -62 43 c-271 188 -431 284 -652 392 -329 161 -664 265
-984 307 -19 2 -35 5 -36 7 -1 1 -21 52 -45 112 -24 61 -56 138 -72 172 -15
34 -28 64 -28 67 0 14 -178 379 -238 488 -16 29 -48 89 -72 133 -106 197 -360
606 -520 835 -135 193 -460 618 -524 686 -6 6 -27 31 -46 55 -208 257 -692
761 -1119 1165 -46 43 -97 93 -115 110 -142 138 -566 503 -801 690 -55 43
-102 81 -105 84 -3 4 -23 19 -45 36 -22 16 -46 35 -55 41 -22 18 -217 168
-243 187 -12 9 -60 45 -107 80 -369 274 -991 698 -1296 883 -10 6 -109 68
-219 136 -192 119 -389 237 -410 246 -5 2 -37 21 -70 41 -33 20 -91 53 -128
74 -37 20 -84 46 -105 58 -248 139 -611 334 -747 401 -133 65 -266 127 -273
127 -4 0 270 -276 609 -613z m4059 -7913 c41 -9 86 -18 100 -20 54 -10 350
-95 440 -128 306 -110 511 -231 709 -421 110 -106 212 -231 298 -371 82 -132
543 -1051 543 -1082 0 -11 -60 0 -155 28 -38 12 -90 28 -115 35 -130 38 -426
160 -540 223 -231 127 -373 233 -535 397 -140 142 -228 255 -340 432 -41 65
-78 123 -83 128 -11 15 -151 265 -207 370 -60 113 -128 242 -170 320 -42 78
-50 105 -33 105 7 0 47 -7 88 -16z"/>
<path d="M19119 24313 c-143 -169 -342 -364 -518 -508 -14 -11 -41 -34 -60
-51 -20 -17 -85 -70 -146 -117 -134 -106 -122 -96 -170 -132 -22 -17 -49 -38
-60 -47 -16 -14 -308 -238 -465 -358 -261 -199 -480 -377 -480 -390 0 -3 15
-22 33 -41 201 -218 261 -284 312 -344 33 -38 65 -75 70 -81 189 -209 558
-682 760 -974 136 -197 283 -419 294 -444 2 -4 24 -40 50 -80 26 -39 60 -93
76 -121 16 -27 38 -63 48 -80 9 -16 20 -38 23 -47 4 -10 10 -18 15 -18 5 0 9
-5 9 -10 0 -6 20 -43 44 -83 43 -71 166 -295 166 -301 0 -2 19 -37 43 -78 l42
-75 30 16 c25 13 107 64 290 178 11 7 34 19 50 27 17 8 66 35 110 60 73 41
183 98 195 100 3 1 43 21 90 45 115 59 395 181 565 247 77 30 149 59 160 64
27 14 464 168 495 176 8 1 67 21 130 42 63 22 158 53 210 70 255 81 572 182
828 265 l282 92 -80 118 c-203 298 -447 602 -745 926 -92 100 -410 416 -510
506 -49 44 -93 85 -99 90 -29 27 -173 154 -191 168 -18 15 -203 167 -250 206
-49 41 -327 252 -395 301 -206 147 -360 253 -623 431 -158 107 -295 199 -305
204 -9 6 -63 41 -118 78 -56 37 -106 67 -112 67 -6 0 -47 -44 -93 -97z"/>
<path d="M23939 20756 c-2 -2 -60 -6 -129 -10 -69 -3 -147 -8 -175 -11 -161
-18 -244 -30 -365 -52 -74 -13 -144 -26 -155 -28 -42 -8 -205 -45 -257 -59
-473 -130 -770 -242 -1178 -446 -433 -216 -842 -481 -1260 -815 -41 -33 -80
-64 -86 -70 -6 -5 -36 -30 -65 -55 -252 -211 -580 -531 -814 -794 -38 -44 -75
-84 -81 -90 -20 -22 -301 -372 -344 -431 -25 -33 -48 -62 -51 -65 -8 -6 -29
-47 -29 -55 0 -14 88 9 239 62 86 30 194 66 241 80 85 25 282 81 310 89 409
107 776 195 910 220 14 3 33 7 42 10 10 3 30 7 45 10 16 3 35 7 43 9 16 5 310
62 364 70 17 3 54 10 81 15 28 6 61 12 75 15 27 5 194 33 245 41 17 3 37 7 45
9 8 2 37 6 64 10 27 3 52 8 55 9 3 2 33 7 66 10 33 4 67 9 75 11 16 4 54 10
130 20 25 3 60 8 78 10 17 3 47 7 65 10 17 2 50 7 72 10 22 3 63 8 90 11 28 2
61 6 75 9 39 6 96 13 205 25 55 6 116 13 135 15 44 6 118 13 190 20 30 3 80 7
110 10 248 23 365 33 508 40 63 3 128 8 145 10 52 7 447 18 672 19 290 0 762
-19 935 -39 19 -2 67 -7 105 -10 39 -3 88 -7 110 -10 22 -2 60 -7 85 -9 143
-16 285 -35 310 -41 8 -2 35 -7 60 -10 202 -28 526 -115 753 -203 42 -17 77
-28 77 -26 0 3 10 0 22 -7 19 -10 20 -9 14 7 -21 51 -101 264 -113 299 -7 22
-18 49 -23 60 -11 23 -170 443 -170 449 0 2 -8 21 -17 42 -9 22 -18 44 -19 49
-3 11 -135 358 -177 465 -14 36 -71 187 -127 335 -56 149 -108 284 -115 300
-7 17 -16 41 -20 55 -14 48 -45 100 -70 116 -13 9 -64 26 -112 39 -49 13 -115
31 -148 40 -33 9 -68 18 -79 20 -10 3 -44 12 -75 21 -31 9 -67 18 -81 21 -14
2 -65 13 -115 24 -128 29 -337 66 -420 75 -22 2 -49 6 -60 8 -11 2 -60 7 -110
11 -49 4 -99 10 -110 12 -23 5 -691 13 -696 9z"/>
<path d="M15700 19406 c0 -2 20 -61 44 -132 72 -213 139 -430 172 -554 31
-122 91 -393 108 -498 3 -15 8 -43 11 -62 4 -19 8 -51 11 -70 2 -19 9 -60 14
-90 5 -30 12 -82 16 -115 4 -33 8 -67 9 -75 1 -8 5 -46 9 -85 4 -38 9 -83 11
-100 13 -96 20 -318 20 -585 -1 -269 -5 -387 -20 -575 -11 -138 -40 -378 -50
-415 -2 -8 -7 -35 -10 -60 -7 -57 -29 -174 -61 -321 -13 -63 -26 -126 -29
-139 -29 -152 -180 -635 -275 -880 -29 -74 -56 -145 -61 -157 l-8 -21 72 20
c153 43 1608 535 1852 626 92 34 167 65 313 128 48 22 315 155 367 184 210
117 340 203 497 327 122 96 340 306 444 427 116 135 334 433 334 457 0 8 -71
100 -100 129 -3 3 -23 25 -44 50 -39 45 -199 217 -391 419 -406 431 -868 858
-1149 1064 -28 20 -60 45 -71 54 -68 58 -479 341 -605 417 -483 290 -862 464
-1314 605 -97 30 -116 35 -116 27z"/>
<path d="M10542 18072 c-18 -6 -4 -29 123 -207 390 -546 759 -1154 984 -1620
149 -309 165 -346 238 -530 85 -218 180 -524 199 -640 3 -22 8 -43 9 -46 6 -8
35 -194 43 -269 9 -84 8 -311 -1 -375 -4 -27 -10 -77 -14 -109 l-6 -60 34 39
c19 21 43 48 54 59 29 30 115 130 200 232 22 26 47 55 55 64 8 8 76 92 150
185 74 94 137 172 140 175 3 3 40 52 83 110 43 58 84 113 92 123 8 9 15 21 15
26 0 5 4 11 9 13 5 2 50 62 100 133 50 72 94 135 99 140 21 26 222 333 222
338 0 3 13 25 29 49 15 24 40 63 53 88 14 25 45 79 68 120 69 120 195 386 238
500 39 107 87 267 97 329 3 19 7 37 9 40 6 9 19 153 17 186 -3 67 -13 85 -79
143 -166 144 -369 259 -674 381 -114 45 -297 108 -342 117 -11 2 -40 10 -65
18 -48 16 -290 74 -381 91 -70 14 -382 65 -425 70 -27 4 -61 8 -75 10 -14 2
-56 7 -95 10 -38 3 -86 8 -105 10 -19 3 -62 7 -95 10 -61 6 -120 11 -210 20
-161 17 -763 37 -793 27z"/>
<path d="M24440 17380 c-413 -136 -644 -232 -1045 -435 -412 -208 -540 -281
-830 -473 -197 -131 -553 -394 -660 -490 -11 -10 -45 -38 -75 -62 -30 -25 -57
-47 -60 -50 -3 -3 -39 -35 -80 -70 -41 -36 -97 -85 -125 -110 -63 -57 -503
-495 -576 -575 -63 -69 -308 -351 -356 -410 -292 -362 -487 -634 -716 -997
-95 -152 -277 -465 -277 -478 0 -5 -3 -10 -7 -12 -10 -4 -210 -399 -261 -514
-22 -49 -53 -118 -70 -154 -52 -114 -69 -154 -87 -205 -10 -27 -22 -54 -27
-59 -4 -6 -8 -18 -8 -29 0 -18 1 -18 33 1 17 11 53 31 79 45 25 14 64 37 87
51 22 14 43 26 45 26 2 0 38 20 78 44 75 44 141 80 306 168 52 27 128 68 170
91 128 71 584 295 767 377 28 12 88 40 135 62 47 22 175 78 285 124 110 47
215 92 232 100 18 8 115 46 215 85 101 38 192 74 203 79 11 5 42 16 69 25 27
9 54 19 59 22 32 20 918 314 987 328 8 2 112 30 230 63 279 78 630 167 734
186 12 2 39 9 61 14 22 6 56 14 75 17 19 3 55 11 80 16 25 6 56 13 70 15 14 2
54 11 90 19 36 8 81 17 100 20 19 3 58 10 85 15 46 10 284 52 365 65 19 3 60
10 90 15 30 5 78 12 106 15 28 3 61 8 75 10 13 3 44 7 69 11 25 3 70 9 100 14
50 9 82 13 190 24 68 8 145 17 180 21 19 2 64 7 100 10 36 4 76 8 90 10 14 2
54 6 90 9 221 19 307 26 390 31 36 2 97 7 135 9 39 3 142 8 230 12 88 4 177 8
197 9 21 0 40 4 44 7 5 6 -24 64 -97 195 -10 18 -35 63 -55 100 -127 232 -368
638 -475 802 -27 41 -49 75 -49 77 0 3 -124 186 -196 290 -131 188 -357 480
-482 623 -32 36 -79 90 -106 120 -173 198 -508 516 -703 669 -72 57 -75 56
-303 -18z"/>
<path d="M26660 12965 c0 -9 193 -389 241 -475 39 -70 105 -190 123 -224 6
-12 60 -102 119 -201 132 -220 130 -216 139 -229 5 -6 66 -99 137 -206 187
-285 435 -613 596 -790 18 -19 58 -64 90 -100 110 -123 250 -261 291 -285 45
-28 91 -31 189 -15 33 6 76 13 95 16 104 16 158 24 180 28 61 11 219 36 255
41 22 4 76 13 120 21 44 7 96 16 115 18 19 3 49 7 65 10 17 3 100 16 185 30
85 13 171 27 190 30 19 3 64 10 100 16 36 5 134 21 217 35 84 14 174 27 200
31 26 3 49 7 52 9 3 2 30 6 60 10 30 4 63 9 75 11 12 2 32 6 46 8 14 3 43 8
65 11 106 14 135 23 135 41 0 19 -137 162 -255 267 -143 126 -147 130 -210
177 -33 25 -62 47 -65 50 -3 3 -45 35 -95 70 -49 35 -91 68 -93 72 -2 4 -8 8
-13 8 -5 0 -76 44 -157 98 -131 88 -386 243 -482 295 -39 21 -147 80 -200 110
-44 25 -548 277 -554 277 -2 0 -50 22 -107 48 -179 84 -197 92 -489 212 -157
64 -386 154 -510 200 -198 73 -720 253 -775 267 -45 12 -75 15 -75 8z"/>
<path d="M25097 12933 c-2 -1 -48 -5 -103 -8 -118 -6 -238 -15 -262 -19 -9 -2
-42 -7 -72 -11 -63 -8 -340 -69 -417 -91 -29 -8 -65 -17 -80 -20 -15 -3 -122
-30 -238 -61 -177 -47 -259 -72 -365 -111 -8 -3 -19 -6 -25 -7 -21 -5 -315
-126 -414 -170 -189 -84 -504 -245 -636 -324 -33 -20 -76 -45 -95 -56 -88 -50
-368 -234 -457 -299 -149 -109 -191 -142 -308 -235 -466 -373 -925 -883 -1224
-1359 -39 -62 -71 -115 -71 -117 0 -3 -11 -23 -25 -46 -33 -52 -165 -315 -200
-399 -15 -36 -33 -78 -40 -95 -28 -64 -105 -280 -105 -293 0 -9 58 34 140 103
144 122 265 209 415 298 53 32 300 157 309 157 3 0 29 11 58 24 140 64 405
147 638 201 112 26 131 29 225 45 33 5 69 12 81 14 12 2 45 7 75 11 30 3 65 8
79 10 14 2 52 6 85 10 33 3 76 8 95 10 166 21 377 30 745 30 340 -1 786 -10
830 -19 11 -2 64 -7 117 -11 54 -3 110 -8 125 -10 16 -2 69 -6 119 -10 50 -3
104 -8 120 -10 16 -2 74 -6 129 -10 55 -4 109 -9 120 -11 11 -2 58 -6 105 -9
47 -3 94 -7 105 -9 11 -2 56 -7 100 -11 44 -4 94 -8 110 -11 17 -2 55 -6 85
-9 30 -3 69 -8 85 -10 17 -2 57 -7 90 -10 33 -3 74 -8 90 -10 17 -2 57 -7 90
-10 33 -3 74 -8 90 -10 17 -2 66 -7 110 -10 44 -3 91 -8 105 -10 14 -3 52 -7
85 -10 33 -3 83 -8 110 -10 28 -3 74 -8 103 -10 28 -3 76 -7 105 -10 28 -3 86
-7 127 -11 41 -3 95 -7 120 -9 25 -2 83 -7 130 -10 47 -4 101 -8 120 -10 19
-2 78 -7 130 -10 52 -4 108 -9 125 -10 16 -2 74 -7 130 -11 55 -3 114 -7 130
-9 69 -5 69 4 0 95 -36 47 -71 92 -78 100 -7 8 -34 44 -62 80 -27 36 -52 67
-55 70 -3 3 -23 30 -45 60 -22 30 -42 57 -46 60 -12 10 -286 386 -380 523
-181 265 -425 664 -566 927 -22 41 -70 129 -105 195 -59 109 -212 405 -427
829 -44 87 -88 167 -98 178 -11 12 -28 18 -50 16 -19 -1 -35 -3 -36 -5z"/>
<path d="M27555 9332 c-194 -103 -622 -288 -820 -353 -33 -11 -69 -24 -80 -29
-27 -12 -175 -61 -199 -66 -11 -2 -47 -12 -80 -23 -149 -47 -504 -134 -656
-161 -36 -6 -96 -17 -135 -25 -38 -8 -106 -19 -151 -25 -44 -6 -90 -12 -102
-15 -11 -2 -56 -7 -99 -10 -43 -4 -80 -8 -83 -10 -3 -2 -59 -7 -125 -11 -214
-15 -672 -9 -870 11 -22 2 -71 7 -110 10 -38 3 -88 8 -110 11 -22 3 -62 7 -90
9 -27 3 -70 7 -95 10 -115 13 -147 17 -170 20 -14 2 -69 9 -124 15 -54 7 -108
14 -120 16 -11 2 -39 6 -61 9 -51 7 -227 37 -370 65 -60 12 -119 23 -130 25
-11 1 -38 8 -60 13 -22 6 -52 14 -67 17 -16 3 -40 7 -55 10 -16 3 -80 20 -143
37 -63 17 -131 34 -150 38 -69 16 -274 71 -282 76 -20 13 -3 -13 69 -104 43
-53 80 -99 83 -102 3 -3 32 -36 64 -75 164 -195 468 -514 646 -675 19 -18 53
-49 75 -69 227 -207 623 -517 905 -707 119 -81 425 -274 433 -274 2 0 59 -32
128 -72 136 -78 533 -279 662 -335 442 -191 743 -301 1142 -418 131 -38 278
-79 325 -90 8 -2 51 -12 95 -24 44 -11 91 -22 105 -25 14 -2 68 -14 120 -26
52 -12 129 -28 170 -36 41 -8 86 -16 100 -19 14 -3 41 -8 60 -11 19 -4 44 -8
55 -10 39 -7 270 -44 300 -48 74 -10 202 -27 224 -31 14 -2 54 -7 90 -10 36
-4 73 -8 81 -10 8 -2 51 -7 95 -11 44 -3 88 -8 97 -9 9 -2 57 -6 105 -10 48
-3 111 -8 138 -10 413 -41 1352 -35 1898 10 144 12 184 16 217 20 19 3 64 7
100 10 36 3 81 8 100 10 19 2 63 7 98 10 35 4 71 8 80 10 9 1 51 6 92 10 41 4
83 9 92 10 9 2 43 6 75 10 32 3 85 10 118 15 33 5 80 12 104 15 23 3 55 7 70
9 14 3 46 8 71 11 25 3 52 8 60 10 8 2 35 6 60 9 25 3 55 8 66 10 12 2 39 7
60 10 22 4 46 8 54 11 8 2 31 6 50 9 46 8 81 14 165 31 39 8 84 16 102 19 70
13 374 78 468 101 164 40 399 96 415 100 8 2 69 17 135 35 66 17 127 33 135
35 284 70 946 283 1315 423 181 69 203 79 185 86 -8 3 -211 8 -450 11 -239 2
-471 7 -515 9 -180 11 -334 23 -390 31 -16 2 -57 7 -90 10 -73 7 -136 13 -190
19 -22 3 -65 8 -95 11 -52 6 -270 31 -335 40 -16 2 -43 6 -60 9 -16 2 -91 14
-165 26 -74 12 -191 32 -260 46 -69 14 -136 27 -150 30 -14 2 -38 7 -55 11
-16 4 -35 8 -42 9 -7 1 -42 10 -79 19 -37 9 -75 18 -83 20 -100 19 -558 148
-768 216 -237 77 -569 200 -703 261 -25 12 -110 49 -190 83 -341 147 -739 355
-1070 559 -240 147 -688 461 -817 572 -12 11 -30 26 -40 34 -72 58 -218 183
-268 231 -33 31 -85 80 -115 109 -30 28 -85 80 -121 116 -37 35 -73 64 -80 63
-8 0 -45 -17 -84 -37z"/>
</g>
</svg>